<svg width="109" height="109" viewBox="0 0 109 109" fill="none" xmlns="http://www.w3.org/2000/svg">
<circle cx="54.5" cy="54.5" r="54.5" fill="#44475A"/>
<path d="M59.1034 84H51.6078V40.1607H59.1034V84ZM51 28.5323C51 27.3168 51.3647 26.2904 52.094 25.453C52.8503 24.6157 53.9577 24.197 55.4163 24.197C56.875 24.197 57.9824 24.6157 58.7387 25.453C59.4951 26.2904 59.8732 27.3168 59.8732 28.5323C59.8732 29.7478 59.4951 30.7608 58.7387 31.5711C57.9824 32.3814 56.875 32.7866 55.4163 32.7866C53.9577 32.7866 52.8503 32.3814 52.094 31.5711C51.3647 30.7608 51 29.7478 51 28.5323Z" fill="#BD93F9"/>
</svg>
