<svg width="109" height="109" viewBox="0 0 109 109" fill="none" xmlns="http://www.w3.org/2000/svg">
<circle cx="54.5" cy="54.5" r="54.5" fill="black"/>
<path d="M59.1034 84.0003H51.6078V40.1609H59.1034V84.0003ZM51 28.5326C51 27.3171 51.3647 26.2906 52.094 25.4533C52.8503 24.6159 53.9577 24.1973 55.4163 24.1973C56.875 24.1973 57.9824 24.6159 58.7387 25.4533C59.4951 26.2906 59.8732 27.3171 59.8732 28.5326C59.8732 29.7481 59.4951 30.761 58.7387 31.5714C57.9824 32.3817 56.875 32.7869 55.4163 32.7869C53.9577 32.7869 52.8503 32.3817 52.094 31.5714C51.3647 30.761 51 29.7481 51 28.5326Z" fill="#05FF00"/>
</svg>
