<svg width="109" height="109" viewBox="0 0 109 109" fill="none" xmlns="http://www.w3.org/2000/svg">
<circle cx="54.5" cy="54.5" r="54.5" fill="#44475A"/>
<path d="M54 30.8333C60.6628 30.8333 66.0833 36.2539 66.0833 42.9191C66.0833 49.5794 60.6628 55.0024 54 55.0024C47.3373 55.0024 41.9167 49.5794 41.9167 42.9191C41.9167 36.2539 47.3373 30.8333 54 30.8333V30.8333ZM54 26C44.6572 26 37.0833 33.5738 37.0833 42.9191C37.0833 52.2595 44.6572 59.8358 54 59.8358C63.3428 59.8358 70.9167 52.2595 70.9167 42.9191C70.9167 33.5738 63.3428 26 54 26V26ZM69.3918 58.2698C68.1907 59.4733 66.8373 60.5197 65.3849 61.4163C72.3256 65.9451 75.9651 73.7002 77.4006 79.1691H30.5487C31.931 73.6349 35.5222 65.8702 42.5668 61.3873C41.1095 60.4834 39.7586 59.4273 38.5599 58.2166C28.2698 65.6406 25 78.7728 25 84H83C83 78.8235 79.52 65.7373 69.3918 58.2698Z" fill="#BD93F9"/>
</svg>
